<svg width="241" height="26" viewBox="0 0 241 26" fill="none" xmlns="http://www.w3.org/2000/svg">
<mask id="path-1-outside-1_1_3" maskUnits="userSpaceOnUse" x="-1" y="-1" width="243" height="28" fill="black">
<rect fill="white" x="-1" y="-1" width="243" height="28"/>
<path d="M6.688 6.76H0.224V2.344H18.144V6.76H11.68V25H6.688V6.76ZM24.871 0.807999V11.56H24.935C25.0417 11.2613 25.223 10.9627 25.479 10.664C25.735 10.3653 26.0443 10.0987 26.407 9.864C26.7697 9.62933 27.1963 9.43733 27.687 9.288C28.1777 9.13867 28.711 9.064 29.287 9.064C30.503 9.064 31.4843 9.256 32.231 9.64C32.9777 10.0027 33.5537 10.5147 33.959 11.176C34.3857 11.8373 34.6737 12.616 34.823 13.512C34.9723 14.408 35.047 15.3787 35.047 16.424V25H30.247V17.384C30.247 16.936 30.2257 16.4773 30.183 16.008C30.1617 15.5173 30.0657 15.0693 29.895 14.664C29.7457 14.2587 29.5003 13.928 29.159 13.672C28.839 13.416 28.3697 13.288 27.751 13.288C27.1323 13.288 26.631 13.4053 26.247 13.64C25.863 13.8533 25.5643 14.152 25.351 14.536C25.159 14.8987 25.031 15.3147 24.967 15.784C24.903 16.2533 24.871 16.744 24.871 17.256V25H20.071V0.807999H24.871ZM53.166 22.312C52.398 23.2933 51.4273 24.0507 50.254 24.584C49.0807 25.1173 47.8647 25.384 46.606 25.384C45.4113 25.384 44.2807 25.192 43.214 24.808C42.1687 24.424 41.2513 23.88 40.462 23.176C39.694 22.4507 39.086 21.5867 38.638 20.584C38.19 19.5813 37.966 18.4613 37.966 17.224C37.966 15.9867 38.19 14.8667 38.638 13.864C39.086 12.8613 39.694 12.008 40.462 11.304C41.2513 10.5787 42.1687 10.024 43.214 9.64C44.2807 9.256 45.4113 9.064 46.606 9.064C47.7153 9.064 48.718 9.256 49.614 9.64C50.5313 10.024 51.2993 10.5787 51.918 11.304C52.558 12.008 53.0487 12.8613 53.39 13.864C53.7313 14.8667 53.902 15.9867 53.902 17.224V18.728H42.766C42.958 19.6453 43.374 20.3813 44.014 20.936C44.654 21.4693 45.4433 21.736 46.382 21.736C47.1713 21.736 47.8327 21.5653 48.366 21.224C48.9207 20.8613 49.4007 20.4027 49.806 19.848L53.166 22.312ZM49.102 15.464C49.1233 14.6533 48.8567 13.96 48.302 13.384C47.7473 12.808 47.0327 12.52 46.158 12.52C45.6247 12.52 45.1553 12.6053 44.75 12.776C44.3447 12.9467 43.9927 13.1707 43.694 13.448C43.4167 13.704 43.1927 14.0133 43.022 14.376C42.8727 14.7173 42.7873 15.08 42.766 15.464H49.102ZM66.8978 2.344H75.3138C76.4871 2.344 77.5964 2.45067 78.6418 2.664C79.6871 2.87733 80.5938 3.25067 81.3618 3.784C82.1511 4.296 82.7698 5 83.2178 5.896C83.6871 6.77067 83.9218 7.88 83.9218 9.224C83.9218 10.5467 83.7084 11.656 83.2818 12.552C82.8551 13.448 82.2684 14.1627 81.5218 14.696C80.7751 15.2293 79.8898 15.6133 78.8658 15.848C77.8418 16.0613 76.7324 16.168 75.5378 16.168H71.8898V25H66.8978V2.344ZM71.8898 11.944H75.2178C75.6658 11.944 76.0924 11.9013 76.4978 11.816C76.9244 11.7307 77.2978 11.592 77.6178 11.4C77.9591 11.1867 78.2258 10.9093 78.4178 10.568C78.6311 10.2053 78.7378 9.75733 78.7378 9.224C78.7378 8.648 78.5991 8.18933 78.3218 7.848C78.0658 7.48533 77.7244 7.208 77.2978 7.016C76.8924 6.824 76.4338 6.70667 75.9218 6.664C75.4098 6.6 74.9191 6.568 74.4498 6.568H71.8898V11.944ZM101.166 22.312C100.398 23.2933 99.4273 24.0507 98.254 24.584C97.0807 25.1173 95.8647 25.384 94.606 25.384C93.4113 25.384 92.2807 25.192 91.214 24.808C90.1687 24.424 89.2513 23.88 88.462 23.176C87.694 22.4507 87.086 21.5867 86.638 20.584C86.19 19.5813 85.966 18.4613 85.966 17.224C85.966 15.9867 86.19 14.8667 86.638 13.864C87.086 12.8613 87.694 12.008 88.462 11.304C89.2513 10.5787 90.1687 10.024 91.214 9.64C92.2807 9.256 93.4113 9.064 94.606 9.064C95.7153 9.064 96.718 9.256 97.614 9.64C98.5313 10.024 99.2993 10.5787 99.918 11.304C100.558 12.008 101.049 12.8613 101.39 13.864C101.731 14.8667 101.902 15.9867 101.902 17.224V18.728H90.766C90.958 19.6453 91.374 20.3813 92.014 20.936C92.654 21.4693 93.4433 21.736 94.382 21.736C95.1713 21.736 95.8327 21.5653 96.366 21.224C96.9207 20.8613 97.4007 20.4027 97.806 19.848L101.166 22.312ZM97.102 15.464C97.1233 14.6533 96.8567 13.96 96.302 13.384C95.7473 12.808 95.0327 12.52 94.158 12.52C93.6247 12.52 93.1553 12.6053 92.75 12.776C92.3447 12.9467 91.9927 13.1707 91.694 13.448C91.4167 13.704 91.1927 14.0133 91.022 14.376C90.8727 14.7173 90.7873 15.08 90.766 15.464H97.102ZM104.821 9.448H109.621V11.944H109.685C110.197 10.984 110.805 10.2693 111.509 9.8C112.213 9.30933 113.098 9.064 114.165 9.064C114.442 9.064 114.72 9.07467 114.997 9.096C115.274 9.11733 115.53 9.16 115.765 9.224V13.608C115.424 13.5013 115.082 13.4267 114.741 13.384C114.421 13.32 114.08 13.288 113.717 13.288C112.8 13.288 112.074 13.416 111.541 13.672C111.008 13.928 110.592 14.2907 110.293 14.76C110.016 15.208 109.834 15.752 109.749 16.392C109.664 17.032 109.621 17.736 109.621 18.504V25H104.821V9.448ZM117.852 0.807999H122.652V15.592L127.964 9.448H133.852L127.676 16.456L134.012 25H127.964L122.716 17.128H122.652V25H117.852V0.807999ZM156.91 7.88C156.505 7.368 155.95 6.99467 155.246 6.76C154.564 6.504 153.913 6.376 153.294 6.376C152.932 6.376 152.558 6.41867 152.174 6.504C151.79 6.58933 151.428 6.728 151.086 6.92C150.745 7.09067 150.468 7.32533 150.254 7.624C150.041 7.92267 149.934 8.28533 149.934 8.712C149.934 9.39467 150.19 9.91733 150.702 10.28C151.214 10.6427 151.854 10.952 152.622 11.208C153.412 11.464 154.254 11.72 155.15 11.976C156.046 12.232 156.878 12.5947 157.646 13.064C158.436 13.5333 159.086 14.1627 159.598 14.952C160.11 15.7413 160.366 16.7973 160.366 18.12C160.366 19.3787 160.132 20.4773 159.662 21.416C159.193 22.3547 158.553 23.1333 157.742 23.752C156.953 24.3707 156.025 24.8293 154.958 25.128C153.913 25.4267 152.804 25.576 151.63 25.576C150.158 25.576 148.793 25.352 147.534 24.904C146.276 24.456 145.102 23.7307 144.014 22.728L147.566 18.824C148.078 19.5067 148.718 20.04 149.486 20.424C150.276 20.7867 151.086 20.968 151.918 20.968C152.324 20.968 152.729 20.9253 153.134 20.84C153.561 20.7333 153.934 20.584 154.254 20.392C154.596 20.2 154.862 19.9547 155.054 19.656C155.268 19.3573 155.374 19.0053 155.374 18.6C155.374 17.9173 155.108 17.384 154.574 17C154.062 16.5947 153.412 16.2533 152.622 15.976C151.833 15.6987 150.98 15.4213 150.062 15.144C149.145 14.8667 148.292 14.4933 147.502 14.024C146.713 13.5547 146.052 12.936 145.518 12.168C145.006 11.4 144.75 10.3867 144.75 9.128C144.75 7.912 144.985 6.84533 145.454 5.928C145.945 5.01067 146.585 4.24266 147.374 3.624C148.185 3.00533 149.113 2.54667 150.158 2.248C151.204 1.928 152.281 1.768 153.39 1.768C154.67 1.768 155.908 1.94933 157.102 2.312C158.297 2.67467 159.374 3.28267 160.334 4.136L156.91 7.88ZM174.069 13.288H169.845V18.472C169.845 18.8987 169.867 19.2933 169.909 19.656C169.952 19.9973 170.048 20.296 170.197 20.552C170.347 20.808 170.571 21.0107 170.869 21.16C171.189 21.288 171.605 21.352 172.117 21.352C172.373 21.352 172.704 21.3307 173.109 21.288C173.536 21.224 173.856 21.096 174.069 20.904V24.904C173.536 25.096 172.981 25.224 172.405 25.288C171.829 25.352 171.264 25.384 170.709 25.384C169.899 25.384 169.152 25.2987 168.469 25.128C167.787 24.9573 167.189 24.6907 166.677 24.328C166.165 23.944 165.76 23.4533 165.461 22.856C165.184 22.2587 165.045 21.5333 165.045 20.68V13.288H161.973V9.448H165.045V4.84H169.845V9.448H174.069V13.288ZM191.485 25H186.877V22.888H186.813C186.642 23.1867 186.418 23.4853 186.141 23.784C185.885 24.0827 185.565 24.3493 185.181 24.584C184.797 24.8187 184.359 25.0107 183.869 25.16C183.378 25.3093 182.845 25.384 182.269 25.384C181.053 25.384 180.061 25.2027 179.293 24.84C178.546 24.456 177.959 23.9333 177.533 23.272C177.127 22.6107 176.85 21.832 176.701 20.936C176.573 20.04 176.509 19.0693 176.509 18.024V9.448H181.309V17.064C181.309 17.512 181.319 17.9813 181.341 18.472C181.383 18.9413 181.479 19.3787 181.629 19.784C181.799 20.1893 182.045 20.52 182.365 20.776C182.706 21.032 183.186 21.16 183.805 21.16C184.423 21.16 184.925 21.0533 185.309 20.84C185.693 20.6053 185.981 20.3067 186.173 19.944C186.386 19.56 186.525 19.1333 186.589 18.664C186.653 18.1947 186.685 17.704 186.685 17.192V9.448H191.485V25ZM211.204 25H206.788V22.952H206.724C206.532 23.2293 206.276 23.5173 205.956 23.816C205.657 24.0933 205.294 24.3493 204.868 24.584C204.462 24.8187 204.004 25.0107 203.492 25.16C203.001 25.3093 202.489 25.384 201.956 25.384C200.804 25.384 199.758 25.192 198.82 24.808C197.881 24.4027 197.07 23.848 196.388 23.144C195.726 22.4187 195.214 21.5653 194.852 20.584C194.489 19.6027 194.308 18.5253 194.308 17.352C194.308 16.264 194.468 15.2293 194.788 14.248C195.129 13.2453 195.598 12.36 196.196 11.592C196.814 10.824 197.561 10.216 198.436 9.768C199.31 9.29867 200.302 9.064 201.411 9.064C202.414 9.064 203.342 9.224 204.196 9.544C205.07 9.84267 205.785 10.3653 206.34 11.112H206.404V0.807999H211.204V25ZM206.788 17.224C206.788 16.0507 206.446 15.1013 205.764 14.376C205.102 13.6507 204.164 13.288 202.948 13.288C201.732 13.288 200.782 13.6507 200.1 14.376C199.438 15.1013 199.108 16.0507 199.108 17.224C199.108 18.3973 199.438 19.3467 200.1 20.072C200.782 20.7973 201.732 21.16 202.948 21.16C204.164 21.16 205.102 20.7973 205.764 20.072C206.446 19.3467 206.788 18.3973 206.788 17.224ZM215.104 9.448H219.904V25H215.104V9.448ZM214.72 4.552C214.72 3.784 214.986 3.13333 215.52 2.6C216.074 2.04533 216.736 1.768 217.504 1.768C218.272 1.768 218.922 2.04533 219.456 2.6C220.01 3.13333 220.288 3.784 220.288 4.552C220.288 5.32 220.01 5.98133 219.456 6.536C218.922 7.06933 218.272 7.336 217.504 7.336C216.736 7.336 216.074 7.06933 215.52 6.536C214.986 5.98133 214.72 5.32 214.72 4.552ZM222.776 17.224C222.776 15.9867 223 14.8667 223.448 13.864C223.896 12.8613 224.504 12.008 225.272 11.304C226.062 10.5787 226.979 10.024 228.024 9.64C229.091 9.256 230.222 9.064 231.416 9.064C232.611 9.064 233.731 9.256 234.776 9.64C235.843 10.024 236.76 10.5787 237.528 11.304C238.318 12.008 238.936 12.8613 239.384 13.864C239.832 14.8667 240.056 15.9867 240.056 17.224C240.056 18.4613 239.832 19.5813 239.384 20.584C238.936 21.5867 238.318 22.4507 237.528 23.176C236.76 23.88 235.843 24.424 234.776 24.808C233.731 25.192 232.611 25.384 231.416 25.384C230.222 25.384 229.091 25.192 228.024 24.808C226.979 24.424 226.062 23.88 225.272 23.176C224.504 22.4507 223.896 21.5867 223.448 20.584C223 19.5813 222.776 18.4613 222.776 17.224ZM227.576 17.224C227.576 18.3973 227.907 19.3467 228.568 20.072C229.251 20.7973 230.2 21.16 231.416 21.16C232.632 21.16 233.571 20.7973 234.232 20.072C234.915 19.3467 235.256 18.3973 235.256 17.224C235.256 16.0507 234.915 15.1013 234.232 14.376C233.571 13.6507 232.632 13.288 231.416 13.288C230.2 13.288 229.251 13.6507 228.568 14.376C227.907 15.1013 227.576 16.0507 227.576 17.224Z"/>
</mask>
<path d="M6.688 6.76H7.688L6.688 5.76V6.76ZM0.224 6.76H-0.776L0.224 7.76V6.76ZM0.224 2.344V1.344L-0.776 2.344H0.224ZM18.144 2.344H19.144L18.144 1.344V2.344ZM18.144 6.76V7.76L19.144 6.76H18.144ZM11.68 6.76V5.76L10.68 6.76H11.68ZM11.68 25V26L12.68 25H11.68ZM6.688 25H5.688L6.688 26V25ZM6.688 5.76H0.224V7.76H6.688V5.76ZM1.224 6.76V2.344H-0.776V6.76H1.224ZM0.224 3.344H18.144V1.344H0.224V3.344ZM17.144 2.344V6.76H19.144V2.344H17.144ZM18.144 5.76H11.68V7.76H18.144V5.76ZM10.68 6.76V25H12.68V6.76H10.68ZM11.68 24H6.688V26H11.68V24ZM7.688 25V6.76H5.688V25H7.688ZM24.871 0.807999H25.871L24.871 -0.192001V0.807999ZM24.871 11.56H23.871L24.871 12.56V11.56ZM24.935 11.56V12.56L25.8767 11.8963L24.935 11.56ZM25.479 10.664L26.2383 11.3148L25.479 10.664ZM26.407 9.864L26.9503 10.7036L26.407 9.864ZM32.231 9.64L31.7737 10.5293L31.7941 10.5395L32.231 9.64ZM33.959 11.176L33.1064 11.6986L33.1187 11.7181L33.959 11.176ZM34.823 13.512L33.8366 13.6764V13.6764L34.823 13.512ZM35.047 25V26L36.047 25H35.047ZM30.247 25H29.247L30.247 26V25ZM30.183 16.008L29.1839 16.0514L29.1871 16.0985L30.183 16.008ZM29.895 14.664L28.9567 15.0097L28.9734 15.0521L29.895 14.664ZM29.159 13.672L28.5343 14.4529L28.559 14.472L29.159 13.672ZM26.247 13.64L26.7326 14.5142L26.7684 14.4933L26.247 13.64ZM25.351 14.536L24.4768 14.0504L24.4672 14.0681L25.351 14.536ZM24.967 15.784L25.9578 15.9191L24.967 15.784ZM24.871 25V26L25.871 25H24.871ZM20.071 25H19.071L20.071 26V25ZM20.071 0.807999V-0.192001L19.071 0.807999H20.071ZM23.871 0.807999V11.56H25.871V0.807999H23.871ZM24.871 12.56H24.935V10.56H24.871V12.56ZM25.8767 11.8963C25.9337 11.7367 26.0434 11.5422 26.2383 11.3148L24.7197 10.0132C24.4026 10.3832 24.1496 10.7859 23.9933 11.2237L25.8767 11.8963ZM26.2383 11.3148C26.4259 11.0959 26.6604 10.8911 26.9503 10.7036L25.8637 9.02443C25.4282 9.30624 25.0441 9.63479 24.7197 10.0132L26.2383 11.3148ZM26.9503 10.7036C27.2217 10.5279 27.5604 10.3718 27.9782 10.2447L27.3958 8.33133C26.8322 8.50285 26.3176 8.73077 25.8637 9.02443L26.9503 10.7036ZM27.9782 10.2447C28.3636 10.1274 28.7977 10.064 29.287 10.064V8.064C28.6243 8.064 27.9917 8.14998 27.3958 8.33133L27.9782 10.2447ZM29.287 10.064C30.4102 10.064 31.2175 10.2433 31.7737 10.5293L32.6884 8.75071C31.7511 8.26871 30.5958 8.064 29.287 8.064V10.064ZM31.7941 10.5395C32.3816 10.8249 32.8079 11.2115 33.1064 11.6986L34.8116 10.6534C34.2994 9.81782 33.5737 9.18044 32.6679 8.74049L31.7941 10.5395ZM33.1187 11.7181C33.4609 12.2485 33.7063 12.8944 33.8366 13.6764L35.8094 13.3476C35.6411 12.3376 35.3104 11.4262 34.7993 10.6339L33.1187 11.7181ZM33.8366 13.6764C33.9757 14.5107 34.047 15.4257 34.047 16.424H36.047C36.047 15.3316 35.969 14.3053 35.8094 13.3476L33.8366 13.6764ZM34.047 16.424V25H36.047V16.424H34.047ZM35.047 24H30.247V26H35.047V24ZM31.247 25V17.384H29.247V25H31.247ZM31.247 17.384C31.247 16.9043 31.2242 16.4154 31.1789 15.9175L29.1871 16.0985C29.2272 16.5393 29.247 16.9677 29.247 17.384H31.247ZM31.1821 15.9646C31.1562 15.3691 31.0384 14.8027 30.8166 14.2759L28.9734 15.0521C29.0929 15.336 29.1672 15.6656 29.1839 16.0514L31.1821 15.9646ZM30.8333 14.3183C30.6182 13.7345 30.2566 13.2452 29.759 12.872L28.559 14.472C28.7441 14.6108 28.8731 14.7829 28.9567 15.0097L30.8333 14.3183ZM29.7837 12.8911C29.2159 12.4369 28.4862 12.288 27.751 12.288V14.288C28.2532 14.288 28.4621 14.3951 28.5343 14.4529L29.7837 12.8911ZM27.751 12.288C27.0146 12.288 26.3148 12.4266 25.7255 12.7867L26.7684 14.4933C26.9472 14.3841 27.2501 14.288 27.751 14.288V12.288ZM25.7614 12.7658C25.2141 13.0699 24.7809 13.5031 24.4768 14.0504L26.2252 15.0216C26.3478 14.8009 26.5119 14.6368 26.7326 14.5142L25.7614 12.7658ZM24.4672 14.0681C24.2125 14.5492 24.0536 15.0809 23.9762 15.6489L25.9578 15.9191C26.0084 15.5485 26.1055 15.2481 26.2348 15.0039L24.4672 14.0681ZM23.9762 15.6489C23.9056 16.1664 23.871 16.7024 23.871 17.256H25.871C25.871 16.7856 25.9004 16.3402 25.9578 15.9191L23.9762 15.6489ZM23.871 17.256V25H25.871V17.256H23.871ZM24.871 24H20.071V26H24.871V24ZM21.071 25V0.807999H19.071V25H21.071ZM20.071 1.808H24.871V-0.192001H20.071V1.808ZM53.166 22.312L53.9535 22.9283L53.7574 21.5056L53.166 22.312ZM50.254 24.584L50.6678 25.4944L50.254 24.584ZM43.214 24.808L42.8692 25.7467L42.8753 25.7489L43.214 24.808ZM40.462 23.176L39.7754 23.903L39.7964 23.9223L40.462 23.176ZM38.638 20.584L39.551 20.1761L38.638 20.584ZM38.638 13.864L37.725 13.4561L38.638 13.864ZM40.462 11.304L41.1377 12.0412L41.1386 12.0403L40.462 11.304ZM43.214 9.64L42.8753 8.69909L42.8692 8.70133L43.214 9.64ZM49.614 9.64L49.2201 10.5592L49.2279 10.5624L49.614 9.64ZM51.918 11.304L51.1572 11.9529L51.1781 11.9767L51.918 11.304ZM53.39 13.864L54.3367 13.5417V13.5417L53.39 13.864ZM53.902 18.728V19.728L54.902 18.728H53.902ZM42.766 18.728V17.728L41.7872 18.9329L42.766 18.728ZM44.014 20.936L43.3591 21.6917L43.3738 21.7042L44.014 20.936ZM48.366 21.224L48.9051 22.0663L48.9132 22.061L48.366 21.224ZM49.806 19.848L50.3974 19.0416L48.9986 19.258L49.806 19.848ZM49.102 15.464V16.464L50.1017 15.4903L49.102 15.464ZM48.302 13.384L49.0223 12.6904L48.302 13.384ZM44.75 12.776L44.3619 11.8544V11.8544L44.75 12.776ZM43.694 13.448L44.3723 14.1828L44.3745 14.1808L43.694 13.448ZM43.022 14.376L42.1172 13.9502L42.1058 13.9752L43.022 14.376ZM42.766 15.464L41.7675 15.4085L42.766 16.464V15.464ZM52.3785 21.6957C51.7131 22.546 50.8723 23.2045 49.8402 23.6736L50.6678 25.4944C51.9823 24.8969 53.0829 24.0407 53.9535 22.9283L52.3785 21.6957ZM49.8402 23.6736C48.7936 24.1494 47.7184 24.384 46.606 24.384V26.384C48.0109 26.384 49.3677 26.0853 50.6678 25.4944L49.8402 23.6736ZM46.606 24.384C45.5205 24.384 44.505 24.2099 43.5527 23.8671L42.8753 25.7489C44.0563 26.1741 45.3021 26.384 46.606 26.384V24.384ZM43.5588 23.8693C42.6252 23.5264 41.8182 23.0456 41.1276 22.4297L39.7964 23.9223C40.6845 24.7144 41.7121 25.3216 42.8692 25.7467L43.5588 23.8693ZM41.1486 22.449C40.4801 21.8176 39.9475 21.0634 39.551 20.1761L37.725 20.9919C38.2245 22.11 38.9079 23.0837 39.7754 23.903L41.1486 22.449ZM39.551 20.1761C39.1672 19.3171 38.966 18.3386 38.966 17.224H36.966C36.966 18.5841 37.2128 19.8456 37.725 20.9919L39.551 20.1761ZM38.966 17.224C38.966 16.1094 39.1672 15.1309 39.551 14.2719L37.725 13.4561C37.2128 14.6024 36.966 15.8639 36.966 17.224H38.966ZM39.551 14.2719C39.9463 13.3872 40.4759 12.6478 41.1377 12.0412L39.7863 10.5668C38.9121 11.3682 38.2257 12.3355 37.725 13.4561L39.551 14.2719ZM41.1386 12.0403C41.8279 11.4069 42.6314 10.9194 43.5588 10.5787L42.8692 8.70133C41.7059 9.12864 40.6748 9.7504 39.7854 10.5677L41.1386 12.0403ZM43.5527 10.5809C44.505 10.2381 45.5205 10.064 46.606 10.064V8.064C45.3021 8.064 44.0563 8.27393 42.8753 8.69911L43.5527 10.5809ZM46.606 10.064C47.5985 10.064 48.4646 10.2354 49.2201 10.5591L50.0079 8.72085C48.9714 8.27663 47.8321 8.064 46.606 8.064V10.064ZM49.2279 10.5624C50.007 10.8886 50.6447 11.3521 51.1572 11.9529L52.6788 10.6551C51.954 9.80525 51.0556 9.1594 50.0001 8.71756L49.2279 10.5624ZM51.1781 11.9767C51.716 12.5683 52.1412 13.2986 52.4434 14.1863L54.3367 13.5417C53.9562 12.4241 53.4001 11.4476 52.6579 10.6313L51.1781 11.9767ZM52.4434 14.1863C52.744 15.0694 52.902 16.0783 52.902 17.224H54.902C54.902 15.8951 54.7187 14.664 54.3367 13.5417L52.4434 14.1863ZM52.902 17.224V18.728H54.902V17.224H52.902ZM53.902 17.728H42.766V19.728H53.902V17.728ZM41.7872 18.9329C42.019 20.0402 42.5361 20.9784 43.3591 21.6917L44.6689 20.1803C44.2119 19.7842 43.897 19.2505 43.7448 18.5231L41.7872 18.9329ZM43.3738 21.7042C44.2163 22.4063 45.2409 22.736 46.382 22.736V20.736C45.6458 20.736 45.0917 20.5324 44.6542 20.1678L43.3738 21.7042ZM46.382 22.736C47.3154 22.736 48.1753 22.5333 48.9051 22.0663L47.8269 20.3817C47.49 20.5974 47.0273 20.736 46.382 20.736V22.736ZM48.9132 22.061C49.5725 21.6299 50.1396 21.0864 50.6134 20.438L48.9986 19.258C48.6618 19.7189 48.2688 20.0927 47.8188 20.387L48.9132 22.061ZM49.2146 20.6544L52.5746 23.1184L53.7574 21.5056L50.3974 19.0416L49.2146 20.6544ZM50.1017 15.4903C50.1299 14.4162 49.7657 13.4623 49.0223 12.6904L47.5817 14.0776C47.9477 14.4577 48.1167 14.8905 48.1023 15.4377L50.1017 15.4903ZM49.0223 12.6904C48.2604 11.8992 47.2762 11.52 46.158 11.52V13.52C46.7891 13.52 47.2342 13.7168 47.5817 14.0776L49.0223 12.6904ZM46.158 11.52C45.5191 11.52 44.9133 11.6222 44.3619 11.8544L45.1381 13.6976C45.3974 13.5884 45.7303 13.52 46.158 13.52V11.52ZM44.3619 11.8544C43.8574 12.0668 43.4044 12.3522 43.0135 12.7152L44.3745 14.1808C44.5809 13.9891 44.8319 13.8265 45.1381 13.6976L44.3619 11.8544ZM43.0157 12.7132C42.6379 13.062 42.3393 13.4782 42.1172 13.9502L43.9268 14.8018C44.046 14.5485 44.1954 14.346 44.3723 14.1828L43.0157 12.7132ZM42.1058 13.9752C41.9072 14.4293 41.7953 14.9093 41.7675 15.4085L43.7645 15.5195C43.7794 15.2507 43.8382 15.0053 43.9382 14.7768L42.1058 13.9752ZM42.766 16.464H49.102V14.464H42.766V16.464ZM66.8978 2.344V1.344L65.8978 2.344H66.8978ZM78.6418 2.664L78.4418 3.6438L78.6418 2.664ZM81.3618 3.784L80.7914 4.60537L80.8176 4.62296L81.3618 3.784ZM83.2178 5.896L82.3233 6.34321L82.3366 6.36882L83.2178 5.896ZM83.2818 12.552L84.1846 12.9819L84.1846 12.9819L83.2818 12.552ZM81.5218 14.696L82.103 15.5097L81.5218 14.696ZM78.8658 15.848L79.0697 16.827L79.0891 16.8227L78.8658 15.848ZM71.8897 16.168V15.168L70.8897 16.168H71.8897ZM71.8897 25V26L72.8897 25H71.8897ZM66.8978 25H65.8978L66.8978 26V25ZM71.8897 11.944H70.8897L71.8897 12.944V11.944ZM76.4977 11.816L76.3016 10.8354L76.2917 10.8375L76.4977 11.816ZM77.6178 11.4L78.1322 12.2575L78.1478 12.248L77.6178 11.4ZM78.4177 10.568L77.5558 10.061L77.5462 10.0777L78.4177 10.568ZM78.3217 7.848L77.5048 8.42468L77.5456 8.47859L78.3217 7.848ZM77.2978 7.016L76.8697 7.91974L76.8874 7.92792L77.2978 7.016ZM75.9218 6.664L75.7977 7.65628L75.8387 7.66055L75.9218 6.664ZM71.8897 6.568V5.568L70.8897 6.568H71.8897ZM66.8978 3.344H75.3138V1.344H66.8978V3.344ZM75.3138 3.344C76.4265 3.344 77.4684 3.44516 78.4418 3.6438L78.8417 1.6842C77.7244 1.45618 76.5477 1.344 75.3138 1.344V3.344ZM78.4418 3.6438C79.3728 3.83381 80.1495 4.1596 80.7914 4.60537L81.9321 2.96263C81.038 2.34173 80.0013 1.92085 78.8417 1.6842L78.4418 3.6438ZM80.8176 4.62296C81.4476 5.03161 81.9497 5.59596 82.3233 6.34321L84.1122 5.44879C83.5898 4.40403 82.8546 3.56038 81.9059 2.94504L80.8176 4.62296ZM82.3366 6.36882C82.7052 7.05578 82.9218 7.98917 82.9218 9.224H84.9218C84.9218 7.77083 84.669 6.48555 84.0989 5.42318L82.3366 6.36882ZM82.9218 9.224C82.9218 10.4451 82.724 11.3973 82.3789 12.1221L84.1846 12.9819C84.6928 11.9147 84.9218 10.6482 84.9218 9.224H82.9218ZM82.3789 12.1221C82.019 12.8778 81.538 13.4555 80.9405 13.8823L82.103 15.5097C82.9988 14.8699 83.6911 14.0182 84.1846 12.9819L82.3789 12.1221ZM80.9405 13.8823C80.3158 14.3285 79.5561 14.6639 78.6424 14.8733L79.0891 16.8227C80.2234 16.5628 81.2344 16.1302 82.103 15.5097L80.9405 13.8823ZM78.6618 14.869C77.7136 15.0666 76.6734 15.168 75.5378 15.168V17.168C76.7915 17.168 77.9699 17.0561 79.0697 16.827L78.6618 14.869ZM75.5378 15.168H71.8897V17.168H75.5378V15.168ZM70.8897 16.168V25H72.8897V16.168H70.8897ZM71.8897 24H66.8978V26H71.8897V24ZM67.8978 25V2.344H65.8978V25H67.8978ZM71.8897 12.944H75.2178V10.944H71.8897V12.944ZM75.2178 12.944C75.7294 12.944 76.2254 12.8952 76.7038 12.7945L76.2917 10.8375C75.9594 10.9074 75.6021 10.944 75.2178 10.944V12.944ZM76.6939 12.7966C77.2146 12.6924 77.6992 12.5174 78.1322 12.2575L77.1033 10.5425C76.8964 10.6666 76.6342 10.7689 76.3016 10.8354L76.6939 12.7966ZM78.1478 12.248C78.627 11.9485 79.0129 11.5497 79.2893 11.0583L77.5462 10.0777C77.4386 10.2689 77.2912 10.4249 77.0878 10.552L78.1478 12.248ZM79.2797 11.075C79.6046 10.5227 79.7377 9.88863 79.7377 9.224H77.7377C77.7377 9.62603 77.6576 9.88798 77.5558 10.061L79.2797 11.075ZM79.7377 9.224C79.7377 8.49012 79.5596 7.78571 79.0979 7.21741L77.5456 8.47859C77.6386 8.59296 77.7377 8.80588 77.7377 9.224H79.7377ZM79.1387 7.27132C78.7739 6.75456 78.2887 6.36533 77.7081 6.10408L76.8874 7.92792C77.1601 8.05066 77.3576 8.2161 77.5048 8.42468L79.1387 7.27132ZM77.7258 6.11226C77.1974 5.86196 76.6193 5.71866 76.0048 5.66745L75.8387 7.66055C76.2482 7.69467 76.5874 7.78604 76.8697 7.91974L77.7258 6.11226ZM76.0458 5.67172C75.4966 5.60308 74.9644 5.568 74.4498 5.568V7.568C74.8738 7.568 75.3229 7.59692 75.7977 7.65628L76.0458 5.67172ZM74.4498 5.568H71.8897V7.568H74.4498V5.568ZM70.8897 6.568V11.944H72.8897V6.568H70.8897ZM101.166 22.312L101.954 22.9283L101.757 21.5056L101.166 22.312ZM98.254 24.584L98.6678 25.4944L98.254 24.584ZM91.214 24.808L90.8692 25.7467L90.8753 25.7489L91.214 24.808ZM88.462 23.176L87.7754 23.903L87.7964 23.9223L88.462 23.176ZM86.638 20.584L87.551 20.1761L86.638 20.584ZM86.638 13.864L85.725 13.4561L86.638 13.864ZM88.462 11.304L89.1377 12.0412L89.1386 12.0403L88.462 11.304ZM91.214 9.64L90.8753 8.69909L90.8692 8.70133L91.214 9.64ZM97.614 9.64L97.2201 10.5592L97.2279 10.5624L97.614 9.64ZM99.918 11.304L99.1572 11.9529L99.1781 11.9767L99.918 11.304ZM101.39 13.864L102.337 13.5417V13.5417L101.39 13.864ZM101.902 18.728V19.728L102.902 18.728H101.902ZM90.766 18.728V17.728L89.7872 18.9329L90.766 18.728ZM92.014 20.936L91.3591 21.6917L91.3738 21.7042L92.014 20.936ZM96.366 21.224L96.9051 22.0663L96.9132 22.061L96.366 21.224ZM97.806 19.848L98.3974 19.0416L96.9986 19.258L97.806 19.848ZM97.102 15.464V16.464L98.1017 15.4903L97.102 15.464ZM96.302 13.384L97.0223 12.6904L96.302 13.384ZM92.75 12.776L92.3619 11.8544L92.3619 11.8544L92.75 12.776ZM91.694 13.448L92.3723 14.1828L92.3745 14.1808L91.694 13.448ZM91.022 14.376L90.1172 13.9502L90.1058 13.9752L91.022 14.376ZM90.766 15.464L89.7675 15.4085L90.766 16.464V15.464ZM100.378 21.6957C99.7131 22.546 98.8723 23.2045 97.8402 23.6736L98.6678 25.4944C99.9823 24.8969 101.083 24.0407 101.954 22.9283L100.378 21.6957ZM97.8402 23.6736C96.7936 24.1494 95.7184 24.384 94.606 24.384V26.384C96.0109 26.384 97.3677 26.0853 98.6678 25.4944L97.8402 23.6736ZM94.606 24.384C93.5205 24.384 92.505 24.2099 91.5527 23.8671L90.8753 25.7489C92.0563 26.1741 93.3021 26.384 94.606 26.384V24.384ZM91.5588 23.8693C90.6252 23.5264 89.8182 23.0456 89.1276 22.4297L87.7964 23.9223C88.6845 24.7144 89.7121 25.3216 90.8692 25.7467L91.5588 23.8693ZM89.1486 22.449C88.4801 21.8176 87.9475 21.0634 87.551 20.1761L85.725 20.9919C86.2245 22.11 86.9079 23.0837 87.7754 23.903L89.1486 22.449ZM87.551 20.1761C87.1672 19.3171 86.966 18.3386 86.966 17.224H84.966C84.966 18.5841 85.2128 19.8456 85.725 20.9919L87.551 20.1761ZM86.966 17.224C86.966 16.1094 87.1672 15.1309 87.551 14.2719L85.725 13.4561C85.2128 14.6024 84.966 15.8639 84.966 17.224H86.966ZM87.551 14.2719C87.9463 13.3872 88.4759 12.6478 89.1377 12.0412L87.7863 10.5668C86.9121 11.3682 86.2257 12.3355 85.725 13.4561L87.551 14.2719ZM89.1386 12.0403C89.8279 11.4069 90.6314 10.9194 91.5588 10.5787L90.8692 8.70133C89.7059 9.12864 88.6748 9.7504 87.7854 10.5677L89.1386 12.0403ZM91.5527 10.5809C92.505 10.2381 93.5205 10.064 94.606 10.064V8.064C93.3021 8.064 92.0563 8.27393 90.8753 8.69911L91.5527 10.5809ZM94.606 10.064C95.5985 10.064 96.4646 10.2354 97.2201 10.5591L98.0079 8.72085C96.9714 8.27663 95.8321 8.064 94.606 8.064V10.064ZM97.2279 10.5624C98.007 10.8886 98.6447 11.3521 99.1572 11.9529L100.679 10.6551C99.954 9.80525 99.0556 9.1594 98.0001 8.71756L97.2279 10.5624ZM99.1781 11.9767C99.716 12.5683 100.141 13.2986 100.443 14.1863L102.337 13.5417C101.956 12.4241 101.4 11.4476 100.658 10.6313L99.1781 11.9767ZM100.443 14.1863C100.744 15.0694 100.902 16.0783 100.902 17.224H102.902C102.902 15.8951 102.719 14.664 102.337 13.5417L100.443 14.1863ZM100.902 17.224V18.728H102.902V17.224H100.902ZM101.902 17.728H90.766V19.728H101.902V17.728ZM89.7872 18.9329C90.019 20.0402 90.5361 20.9784 91.3591 21.6917L92.6689 20.1803C92.2119 19.7842 91.897 19.2505 91.7448 18.5231L89.7872 18.9329ZM91.3738 21.7042C92.2163 22.4063 93.2409 22.736 94.382 22.736V20.736C93.6458 20.736 93.0917 20.5324 92.6542 20.1678L91.3738 21.7042ZM94.382 22.736C95.3154 22.736 96.1753 22.5333 96.9051 22.0663L95.8269 20.3817C95.49 20.5974 95.0273 20.736 94.382 20.736V22.736ZM96.9132 22.061C97.5725 21.6299 98.1396 21.0864 98.6134 20.438L96.9986 19.258C96.6618 19.7189 96.2688 20.0927 95.8187 20.387L96.9132 22.061ZM97.2146 20.6544L100.575 23.1184L101.757 21.5056L98.3974 19.0416L97.2146 20.6544ZM98.1017 15.4903C98.1299 14.4162 97.7657 13.4623 97.0223 12.6904L95.5817 14.0776C95.9477 14.4577 96.1167 14.8905 96.1023 15.4377L98.1017 15.4903ZM97.0223 12.6904C96.2604 11.8992 95.2762 11.52 94.158 11.52V13.52C94.7891 13.52 95.2342 13.7168 95.5817 14.0776L97.0223 12.6904ZM94.158 11.52C93.5191 11.52 92.9133 11.6222 92.3619 11.8544L93.1381 13.6976C93.3974 13.5884 93.7303 13.52 94.158 13.52V11.52ZM92.3619 11.8544C91.8574 12.0668 91.4044 12.3522 91.0135 12.7152L92.3745 14.1808C92.5809 13.9891 92.8319 13.8265 93.1381 13.6976L92.3619 11.8544ZM91.0157 12.7132C90.6379 13.062 90.3393 13.4782 90.1172 13.9502L91.9268 14.8018C92.046 14.5485 92.1954 14.346 92.3723 14.1828L91.0157 12.7132ZM90.1058 13.9752C89.9072 14.4293 89.7953 14.9093 89.7675 15.4085L91.7645 15.5195C91.7794 15.2507 91.8382 15.0053 91.9382 14.7768L90.1058 13.9752ZM90.766 16.464H97.102V14.464H90.766V16.464ZM104.821 9.448V8.448L103.821 9.448H104.821ZM109.621 9.448H110.621L109.621 8.448V9.448ZM109.621 11.944H108.621L109.621 12.944V11.944ZM109.685 11.944V12.944L110.567 12.4146L109.685 11.944ZM111.509 9.8L112.064 10.632L112.081 10.6204L111.509 9.8ZM114.997 9.096L114.92 10.0931L114.997 9.096ZM115.765 9.224H116.765L116.028 8.25924L115.765 9.224ZM115.765 13.608L115.467 14.5625L116.765 13.608H115.765ZM114.741 13.384L114.545 14.3646L114.617 14.3763L114.741 13.384ZM111.541 13.672L111.974 14.5735L111.541 13.672ZM110.293 14.76L109.449 14.2231L109.443 14.2336L110.293 14.76ZM109.749 16.392L110.74 16.5242L109.749 16.392ZM109.621 25V26L110.621 25H109.621ZM104.821 25H103.821L104.821 26V25ZM104.821 10.448H109.621V8.448H104.821V10.448ZM108.621 9.448V11.944H110.621V9.448H108.621ZM109.621 12.944H109.685V10.944H109.621V12.944ZM110.567 12.4146C111.023 11.5597 111.531 10.9873 112.064 10.632L110.954 8.96795C110.079 9.55135 109.371 10.4083 108.803 11.4734L110.567 12.4146ZM112.081 10.6204C112.58 10.2724 113.253 10.064 114.165 10.064V8.064C112.944 8.064 111.846 8.34631 110.937 8.9796L112.081 10.6204ZM114.165 10.064C114.417 10.064 114.668 10.0737 114.92 10.0931L115.074 8.09895C114.771 8.07565 114.468 8.064 114.165 8.064V10.064ZM114.92 10.0931C115.143 10.1102 115.336 10.1436 115.502 10.1888L116.028 8.25924C115.725 8.17644 115.405 8.12445 115.074 8.09895L114.92 10.0931ZM114.765 9.224V13.608H116.765V9.224H114.765ZM116.063 12.6535C115.667 12.5298 115.268 12.4421 114.865 12.3917L114.617 14.3763C114.897 14.4113 115.18 14.4729 115.467 14.5625L116.063 12.6535ZM114.937 12.4034C114.546 12.3252 114.138 12.288 113.717 12.288V14.288C114.021 14.288 114.296 14.3148 114.545 14.3646L114.937 12.4034ZM113.717 12.288C112.724 12.288 111.831 12.4238 111.108 12.7705L111.974 14.5735C112.318 14.4082 112.875 14.288 113.717 14.288V12.288ZM111.108 12.7705C110.418 13.1019 109.855 13.5861 109.449 14.2231L111.137 15.2969C111.329 14.9952 111.598 14.7541 111.974 14.5735L111.108 12.7705ZM109.443 14.2336C109.076 14.8255 108.858 15.5107 108.758 16.2598L110.74 16.5242C110.811 15.9933 110.955 15.5905 111.143 15.2864L109.443 14.2336ZM108.758 16.2598C108.666 16.9509 108.621 17.6998 108.621 18.504H110.621C110.621 17.7722 110.662 17.1131 110.74 16.5242L108.758 16.2598ZM108.621 18.504V25H110.621V18.504H108.621ZM109.621 24H104.821V26H109.621V24ZM105.821 25V9.448H103.821V25H105.821ZM117.852 0.807999V-0.192001L116.852 0.807999H117.852ZM122.652 0.807999H123.652L122.652 -0.192001V0.807999ZM122.652 15.592H121.652L123.409 16.246L122.652 15.592ZM127.964 9.448V8.448L127.208 8.79397L127.964 9.448ZM133.852 9.448L134.602 10.1092L133.852 8.448V9.448ZM127.676 16.456L126.926 15.7948L126.873 17.0517L127.676 16.456ZM134.012 25V26L134.815 24.4043L134.012 25ZM127.964 25L127.132 25.5547L127.964 26V25ZM122.716 17.128L123.548 16.5733L122.716 16.128V17.128ZM122.652 17.128V16.128L121.652 17.128H122.652ZM122.652 25V26L123.652 25H122.652ZM117.852 25H116.852L117.852 26V25ZM117.852 1.808H122.652V-0.192001H117.852V1.808ZM121.652 0.807999V15.592H123.652V0.807999H121.652ZM123.409 16.246L128.721 10.102L127.208 8.79397L121.896 14.938L123.409 16.246ZM127.964 10.448H133.852V8.448H127.964V10.448ZM133.102 8.78683L126.926 15.7948L128.426 17.1172L134.602 10.1092L133.102 8.78683ZM126.873 17.0517L133.209 25.5957L134.815 24.4043L128.479 15.8603L126.873 17.0517ZM134.012 24H127.964V26H134.012V24ZM128.796 24.4453L123.548 16.5733L121.884 17.6827L127.132 25.5547L128.796 24.4453ZM122.716 16.128H122.652V18.128H122.716V16.128ZM121.652 17.128V25H123.652V17.128H121.652ZM122.652 24H117.852V26H122.652V24ZM118.852 25V0.807999H116.852V25H118.852ZM156.91 7.88L156.126 8.5007L157.648 8.55487L156.91 7.88ZM155.246 6.76L154.895 7.69633L154.93 7.70868L155.246 6.76ZM151.086 6.92L151.533 7.81443L151.577 7.79158L151.086 6.92ZM150.254 7.624L151.068 8.20524V8.20524L150.254 7.624ZM150.702 10.28L150.124 11.096L150.702 10.28ZM152.622 11.208L152.306 12.1567L152.314 12.1592L152.622 11.208ZM155.15 11.976L154.876 12.9375L155.15 11.976ZM157.646 13.064L157.125 13.9173L157.135 13.9235L157.646 13.064ZM159.598 14.952L160.437 14.4078L159.598 14.952ZM159.662 21.416L158.768 20.9688L159.662 21.416ZM157.742 23.752L157.136 22.957L157.125 22.9649L157.742 23.752ZM154.958 25.128L154.689 24.165L154.684 24.1665L154.958 25.128ZM147.534 24.904L147.87 23.9619L147.534 24.904ZM144.014 22.728L143.275 22.055L143.337 23.4634L144.014 22.728ZM147.566 18.824L148.366 18.224L146.827 18.151L147.566 18.824ZM149.486 20.424L149.039 21.3184L149.069 21.3327L149.486 20.424ZM153.134 20.84L153.34 21.8186L153.377 21.8101L153.134 20.84ZM154.254 20.392L153.764 19.5204L153.74 19.5345L154.254 20.392ZM155.054 19.656L154.241 19.0748L154.213 19.1152L155.054 19.656ZM154.574 17L153.954 17.784L153.99 17.8115L154.574 17ZM152.622 15.976L152.291 16.9195L152.622 15.976ZM150.062 15.144L150.352 14.1868V14.1868L150.062 15.144ZM147.502 14.024L148.013 13.1645L147.502 14.024ZM145.518 12.168L144.686 12.7227L144.697 12.7384L145.518 12.168ZM145.454 5.928L144.572 5.45635L144.564 5.47252L145.454 5.928ZM147.374 3.624L146.768 2.82898L146.757 2.83694L147.374 3.624ZM150.158 2.248L150.433 3.20952L150.451 3.2042L150.158 2.248ZM157.102 2.312L157.393 1.35512L157.102 2.312ZM160.334 4.136L161.072 4.81087L160.999 3.38859L160.334 4.136ZM157.694 7.2593C157.152 6.57471 156.425 6.09885 155.562 5.81132L154.93 7.70868C155.475 7.89048 155.857 8.16129 156.126 8.5007L157.694 7.2593ZM155.597 5.82367C154.822 5.53292 154.052 5.376 153.294 5.376V7.376C153.774 7.376 154.305 7.47507 154.895 7.69633L155.597 5.82367ZM153.294 5.376C152.853 5.376 152.407 5.42797 151.957 5.52781L152.391 7.48019C152.71 7.40936 153.01 7.376 153.294 7.376V5.376ZM151.957 5.52781C151.478 5.63433 151.023 5.80812 150.596 6.04842L151.577 7.79158C151.832 7.64788 152.102 7.54434 152.391 7.48019L151.957 5.52781ZM150.639 6.02557C150.158 6.26618 149.752 6.60601 149.441 7.04276L151.068 8.20524C151.183 8.04465 151.332 7.91515 151.533 7.81443L150.639 6.02557ZM149.441 7.04276C149.087 7.53742 148.934 8.11188 148.934 8.712H150.934C150.934 8.45879 150.995 8.30791 151.068 8.20524L149.441 7.04276ZM148.934 8.712C148.934 9.6856 149.321 10.5274 150.124 11.096L151.28 9.46398C151.059 9.3073 150.934 9.10373 150.934 8.712H148.934ZM150.124 11.096C150.736 11.5293 151.47 11.8781 152.306 12.1567L152.938 10.2593C152.238 10.0259 151.693 9.75607 151.28 9.46398L150.124 11.096ZM152.314 12.1592C153.116 12.4193 153.97 12.6787 154.876 12.9375L155.425 11.0145C154.539 10.7613 153.708 10.5087 152.931 10.2568L152.314 12.1592ZM154.876 12.9375C155.688 13.1696 156.436 13.4966 157.125 13.9173L158.168 12.2107C157.32 11.6927 156.405 11.2944 155.425 11.0145L154.876 12.9375ZM157.135 13.9235C157.789 14.3124 158.329 14.8325 158.759 15.4962L160.437 14.4078C159.844 13.4928 159.082 12.7543 158.157 12.2045L157.135 13.9235ZM158.759 15.4962C159.132 16.0702 159.366 16.9153 159.366 18.12H161.366C161.366 16.6794 161.089 15.4124 160.437 14.4078L158.759 15.4962ZM159.366 18.12C159.366 19.2541 159.155 20.194 158.768 20.9688L160.557 21.8632C161.108 20.7607 161.366 19.5033 161.366 18.12H159.366ZM158.768 20.9688C158.365 21.7752 157.821 22.4336 157.136 22.957L158.349 24.547C159.284 23.8331 160.021 22.9341 160.557 21.8632L158.768 20.9688ZM157.125 22.9649C156.449 23.4947 155.642 23.898 154.689 24.165L155.228 26.091C156.407 25.7607 157.456 25.2466 158.359 24.5391L157.125 22.9649ZM154.684 24.1665C153.734 24.4377 152.718 24.576 151.63 24.576V26.576C152.889 26.576 154.092 26.4157 155.233 26.0895L154.684 24.1665ZM151.63 24.576C150.261 24.576 149.01 24.3679 147.87 23.9619L147.199 25.8461C148.576 26.3361 150.056 26.576 151.63 26.576V24.576ZM147.87 23.9619C146.751 23.5637 145.692 22.9139 144.692 21.9926L143.337 23.4634C144.513 24.5474 145.8 25.3483 147.199 25.8461L147.87 23.9619ZM144.754 23.401L148.306 19.497L146.827 18.151L143.275 22.055L144.754 23.401ZM146.766 19.424C147.372 20.2317 148.133 20.8654 149.039 21.3184L149.933 19.5296C149.303 19.2146 148.785 18.7817 148.366 18.224L146.766 19.424ZM149.069 21.3327C149.983 21.7528 150.936 21.968 151.918 21.968V19.968C151.237 19.968 150.568 19.8205 149.904 19.5153L149.069 21.3327ZM151.918 21.968C152.394 21.968 152.869 21.9178 153.34 21.8186L152.928 19.8615C152.589 19.9328 152.253 19.968 151.918 19.968V21.968ZM153.377 21.8101C153.883 21.6837 154.351 21.5004 154.769 21.2495L153.74 19.5345C153.518 19.6676 153.239 19.783 152.892 19.8699L153.377 21.8101ZM154.745 21.2636C155.213 21 155.606 20.6464 155.895 20.1968L154.213 19.1152C154.118 19.2629 153.978 19.4 153.764 19.5204L154.745 21.2636ZM155.868 20.2372C156.215 19.7513 156.374 19.191 156.374 18.6H154.374C154.374 18.8197 154.32 18.9634 154.241 19.0748L155.868 20.2372ZM156.374 18.6C156.374 17.6104 155.965 16.7688 155.159 16.1885L153.99 17.8115C154.251 17.9992 154.374 18.2242 154.374 18.6H156.374ZM155.195 16.216C154.576 15.7256 153.82 15.3368 152.954 15.0325L152.291 16.9195C153.003 17.1699 153.549 17.4638 153.954 17.784L155.195 16.216ZM152.954 15.0325C152.149 14.7497 151.281 14.4678 150.352 14.1868L149.773 16.1012C150.678 16.3749 151.517 16.6477 152.291 16.9195L152.954 15.0325ZM150.352 14.1868C149.508 13.9319 148.73 13.5906 148.013 13.1645L146.991 14.8835C147.853 15.3961 148.781 15.8014 149.773 16.1012L150.352 14.1868ZM148.013 13.1645C147.349 12.7696 146.793 12.2503 146.34 11.5976L144.697 12.7384C145.31 13.6217 146.077 14.3398 146.991 14.8835L148.013 13.1645ZM146.35 11.6133C145.981 11.0594 145.75 10.259 145.75 9.128H143.75C143.75 10.5143 144.031 11.7406 144.686 12.7227L146.35 11.6133ZM145.75 9.128C145.75 8.04195 145.959 7.13652 146.344 6.38348L144.564 5.47252C144.011 6.55414 143.75 7.78205 143.75 9.128H145.75ZM146.336 6.39965C146.764 5.60002 147.315 4.9409 147.991 4.41105L146.757 2.83694C145.855 3.54443 145.126 4.42131 144.572 5.45635L146.336 6.39965ZM147.981 4.41895C148.686 3.88095 149.5 3.47617 150.433 3.20952L149.884 1.28648C148.726 1.61716 147.684 2.12972 146.768 2.82905L147.981 4.41895ZM150.451 3.2042C151.4 2.91367 152.379 2.768 153.39 2.768V0.768C152.183 0.768 151.007 0.942331 149.866 1.2918L150.451 3.2042ZM153.39 2.768C154.574 2.768 155.714 2.93552 156.812 3.26888L157.393 1.35512C156.102 0.963143 154.766 0.768 153.39 0.768V2.768ZM156.812 3.26888C157.864 3.58834 158.815 4.12325 159.67 4.88341L160.999 3.38859C159.934 2.44208 158.73 1.76099 157.393 1.35512L156.812 3.26888ZM159.596 3.46113L156.172 7.20513L157.648 8.55487L161.072 4.81087L159.596 3.46113ZM174.069 13.288V14.288L175.069 13.288H174.069ZM169.845 13.288V12.288L168.845 13.288H169.845ZM169.909 19.656L168.916 19.7728L168.917 19.78L169.909 19.656ZM170.197 20.552L171.061 20.0481L170.197 20.552ZM170.869 21.16L170.422 22.0544L170.498 22.0885L170.869 21.16ZM173.109 21.288L173.214 22.2825L173.258 22.2769L173.109 21.288ZM174.069 20.904H175.069L173.4 20.1607L174.069 20.904ZM174.069 24.904L174.408 25.8449L175.069 24.904H174.069ZM172.405 25.288L172.516 26.2819L172.405 25.288ZM168.469 25.128L168.227 26.0981L168.469 25.128ZM166.677 24.328L166.077 25.128L166.099 25.144L166.677 24.328ZM165.461 22.856L164.554 23.2771L164.567 23.3032L165.461 22.856ZM165.045 13.288H166.045L165.045 12.288V13.288ZM161.973 13.288H160.973L161.973 14.288V13.288ZM161.973 9.448V8.448L160.973 9.448H161.973ZM165.045 9.448V10.448L166.045 9.448H165.045ZM165.045 4.84V3.84L164.045 4.84H165.045ZM169.845 4.84H170.845L169.845 3.84V4.84ZM169.845 9.448H168.845L169.845 10.448V9.448ZM174.069 9.448H175.069L174.069 8.448V9.448ZM174.069 12.288H169.845V14.288H174.069V12.288ZM168.845 13.288V18.472H170.845V13.288H168.845ZM168.845 18.472C168.845 18.9314 168.868 19.3656 168.916 19.7728L170.902 19.5392C170.865 19.2211 170.845 18.8659 170.845 18.472H168.845ZM168.917 19.78C168.974 20.234 169.106 20.666 169.333 21.0559L171.061 20.0481C170.99 19.926 170.93 19.7606 170.902 19.532L168.917 19.78ZM169.333 21.0559C169.593 21.5005 169.972 21.8295 170.422 22.0544L171.316 20.2656C171.169 20.1918 171.1 20.1155 171.061 20.0481L169.333 21.0559ZM170.498 22.0885C170.979 22.2808 171.534 22.352 172.117 22.352V20.352C171.676 20.352 171.4 20.2952 171.241 20.2315L170.498 22.0885ZM172.117 22.352C172.422 22.352 172.792 22.327 173.214 22.2825L173.005 20.2935C172.616 20.3344 172.324 20.352 172.117 20.352V22.352ZM173.258 22.2769C173.787 22.1976 174.323 22.021 174.738 21.6473L173.4 20.1607C173.389 20.171 173.285 20.2504 172.961 20.2991L173.258 22.2769ZM173.069 20.904V24.904H175.069V20.904H173.069ZM173.731 23.9631C173.273 24.128 172.795 24.2386 172.295 24.2941L172.516 26.2819C173.168 26.2094 173.799 26.064 174.408 25.8449L173.731 23.9631ZM172.295 24.2941C171.754 24.3542 171.225 24.384 170.709 24.384V26.384C171.302 26.384 171.905 26.3498 172.516 26.2819L172.295 24.2941ZM170.709 24.384C169.968 24.384 169.304 24.306 168.712 24.1579L168.227 26.0981C169 26.2914 169.829 26.384 170.709 26.384V24.384ZM168.712 24.1579C168.135 24.0137 167.654 23.7947 167.255 23.512L166.099 25.144C166.724 25.5866 167.438 25.901 168.227 26.0981L168.712 24.1579ZM167.277 23.528C166.895 23.2412 166.588 22.8735 166.356 22.4088L164.567 23.3032C164.932 24.0332 165.436 24.6468 166.077 25.128L167.277 23.528ZM166.368 22.4349C166.167 22.0024 166.045 21.4292 166.045 20.68H164.045C164.045 21.6375 164.2 22.5149 164.554 23.2771L166.368 22.4349ZM166.045 20.68V13.288H164.045V20.68H166.045ZM165.045 12.288H161.973V14.288H165.045V12.288ZM162.973 13.288V9.448H160.973V13.288H162.973ZM161.973 10.448H165.045V8.448H161.973V10.448ZM166.045 9.448V4.84H164.045V9.448H166.045ZM165.045 5.84H169.845V3.84H165.045V5.84ZM168.845 4.84V9.448H170.845V4.84H168.845ZM169.845 10.448H174.069V8.448H169.845V10.448ZM173.069 9.448V13.288H175.069V9.448H173.069ZM191.484 25V26L192.484 25H191.484ZM186.876 25H185.876L186.876 26V25ZM186.876 22.888H187.876L186.876 21.888V22.888ZM186.812 22.888V21.888L185.944 22.3919L186.812 22.888ZM186.141 23.784L185.408 23.1035L185.381 23.1332L186.141 23.784ZM185.18 24.584L184.659 23.7307H184.659L185.18 24.584ZM183.868 25.16L184.16 26.1167L183.868 25.16ZM179.292 24.84L178.835 25.7293L178.865 25.7442L179.292 24.84ZM177.533 23.272L176.68 23.7946L176.692 23.8141L177.533 23.272ZM176.701 20.936L175.711 21.0774L175.714 21.1004L176.701 20.936ZM176.508 9.448V8.448L175.508 9.448H176.508ZM181.309 9.448H182.309L181.309 8.448V9.448ZM181.34 18.472L180.341 18.5154L180.345 18.5625L181.34 18.472ZM181.628 19.784L180.69 20.1297L180.707 20.1721L181.628 19.784ZM182.365 20.776L181.74 21.5569L181.764 21.576L182.365 20.776ZM185.309 20.84L185.794 21.7142L185.83 21.6933L185.309 20.84ZM186.173 19.944L185.298 19.4584L185.289 19.4761L186.173 19.944ZM186.589 18.664L187.579 18.7991V18.7991L186.589 18.664ZM186.684 9.448V8.448L185.684 9.448H186.684ZM191.484 9.448H192.484L191.484 8.448V9.448ZM191.484 24H186.876V26H191.484V24ZM187.876 25V22.888H185.876V25H187.876ZM186.876 21.888H186.812V23.888H186.876V21.888ZM185.944 22.3919C185.818 22.6132 185.642 22.851 185.408 23.1035L186.873 24.4645C187.193 24.1197 187.466 23.7601 187.681 23.3841L185.944 22.3919ZM185.381 23.1332C185.202 23.3418 184.966 23.5429 184.659 23.7307L185.702 25.4373C186.163 25.1557 186.567 24.8235 186.9 24.4348L185.381 23.1332ZM184.659 23.7307C184.356 23.9157 183.998 24.0752 183.577 24.2033L184.16 26.1167C184.72 25.9461 185.237 25.7216 185.702 25.4373L184.659 23.7307ZM183.577 24.2033C183.192 24.3206 182.758 24.384 182.268 24.384V26.384C182.931 26.384 183.564 26.298 184.16 26.1167L183.577 24.2033ZM182.268 24.384C181.141 24.384 180.309 24.2142 179.72 23.9358L178.865 25.7442C179.812 26.1911 180.964 26.384 182.268 26.384V24.384ZM179.75 23.9507C179.148 23.6413 178.698 23.2341 178.373 22.7299L176.692 23.8141C177.22 24.6326 177.943 25.2707 178.835 25.7293L179.75 23.9507ZM178.385 22.7494C178.057 22.2148 177.819 21.5621 177.687 20.7716L175.714 21.1004C175.881 22.1019 176.197 23.0065 176.68 23.7946L178.385 22.7494ZM177.69 20.7946C177.57 19.9519 177.508 19.0291 177.508 18.024H175.508C175.508 19.1096 175.575 20.1281 175.711 21.0774L177.69 20.7946ZM177.508 18.024V9.448H175.508V18.024H177.508ZM176.508 10.448H181.309V8.448H176.508V10.448ZM180.309 9.448V17.064H182.309V9.448H180.309ZM180.309 17.064C180.309 17.5278 180.32 18.0117 180.341 18.5154L182.34 18.4286C182.319 17.951 182.309 17.4962 182.309 17.064H180.309ZM180.345 18.5625C180.394 19.1112 180.508 19.6351 180.69 20.1297L182.567 19.4383C182.45 19.1222 182.372 18.7714 182.336 18.3815L180.345 18.5625ZM180.707 20.1721C180.937 20.7195 181.28 21.1892 181.74 21.5569L182.989 19.9951C182.809 19.8508 182.661 19.6592 182.55 19.3959L180.707 20.1721ZM181.764 21.576C182.341 22.0086 183.063 22.16 183.805 22.16V20.16C183.308 20.16 183.07 20.0554 182.965 19.976L181.764 21.576ZM183.805 22.16C184.528 22.16 185.213 22.0369 185.794 21.7142L184.823 19.9658C184.636 20.0698 184.319 20.16 183.805 20.16V22.16ZM185.83 21.6933C186.352 21.3743 186.772 20.9483 187.056 20.4119L185.289 19.4761C185.189 19.665 185.033 19.8363 184.787 19.9867L185.83 21.6933ZM187.047 20.4296C187.325 19.9288 187.5 19.3818 187.579 18.7991L185.598 18.5289C185.549 18.8848 185.447 19.1912 185.298 19.4584L187.047 20.4296ZM187.579 18.7991C187.65 18.2816 187.684 17.7456 187.684 17.192H185.684C185.684 17.6624 185.655 18.1078 185.598 18.5289L187.579 18.7991ZM187.684 17.192V9.448H185.684V17.192H187.684ZM186.684 10.448H191.484V8.448H186.684V10.448ZM190.484 9.448V25H192.484V9.448H190.484ZM211.204 25V26L212.204 25H211.204ZM206.788 25H205.788L206.788 26V25ZM206.788 22.952H207.788L206.788 21.952V22.952ZM206.723 22.952V21.952L205.901 22.3828L206.723 22.952ZM205.956 23.816L206.636 24.5488L206.638 24.5471L205.956 23.816ZM204.867 24.584L204.386 23.7078L204.366 23.7186L204.867 24.584ZM203.492 25.16L203.211 24.1999L203.2 24.2033L203.492 25.16ZM198.82 24.808L198.423 25.7261L198.441 25.7335L198.82 24.808ZM196.387 23.144L195.649 23.8178L195.67 23.8401L196.387 23.144ZM194.852 20.584L193.913 20.9307H193.914L194.852 20.584ZM194.788 14.248L193.841 13.9257L193.837 13.938L194.788 14.248ZM196.195 11.592L195.417 10.9647L195.406 10.9781L196.195 11.592ZM198.436 9.768L198.891 10.658L198.908 10.6492L198.436 9.768ZM204.195 9.544L203.844 10.4803L203.872 10.4903L204.195 9.544ZM206.34 11.112L205.537 11.7083L206.34 12.112V11.112ZM206.404 11.112V12.112L207.404 11.112H206.404ZM206.404 0.807999V-0.192001L205.404 0.807999H206.404ZM211.204 0.807999H212.204L211.204 -0.192001V0.807999ZM205.764 14.376L205.025 15.0498L205.035 15.0614L205.764 14.376ZM200.1 14.376L199.371 13.6906L199.361 13.7022L200.1 14.376ZM200.1 20.072L199.361 20.7458L199.371 20.7574L200.1 20.072ZM205.764 20.072L205.035 19.3866L205.025 19.3982L205.764 20.072ZM211.204 24H206.788V26H211.204V24ZM207.788 25V22.952H205.788V25H207.788ZM206.788 21.952H206.723V23.952H206.788V21.952ZM205.901 22.3828C205.76 22.587 205.555 22.8215 205.273 23.0849L206.638 24.5471C206.996 24.2132 207.303 23.8717 207.546 23.5212L205.901 22.3828ZM205.275 23.0832C205.047 23.2952 204.754 23.5052 204.386 23.7078L205.349 25.4602C205.834 25.1935 206.267 24.8915 206.636 24.5488L205.275 23.0832ZM204.366 23.7186C204.04 23.9078 203.657 24.0701 203.212 24.2L203.771 26.12C204.35 25.9512 204.885 25.7295 205.369 25.4494L204.366 23.7186ZM203.2 24.2033C202.808 24.3228 202.394 24.384 201.956 24.384V26.384C202.584 26.384 203.194 26.2959 203.783 26.1167L203.2 24.2033ZM201.956 24.384C200.916 24.384 200.001 24.2111 199.198 23.8825L198.441 25.7335C199.515 26.1729 200.691 26.384 201.956 26.384V24.384ZM199.216 23.8899C198.393 23.5345 197.693 23.0535 197.105 22.4479L195.67 23.8401C196.448 24.6425 197.369 25.2709 198.423 25.7261L199.216 23.8899ZM197.126 22.4702C196.558 21.8463 196.11 21.1059 195.789 20.2373L193.914 20.9307C194.318 22.0248 194.895 22.9911 195.649 23.8178L197.126 22.4702ZM195.789 20.2373C195.473 19.3796 195.307 18.4213 195.307 17.352H193.307C193.307 18.6294 193.505 19.8257 193.913 20.9307L195.789 20.2373ZM195.307 17.352C195.307 16.3636 195.453 15.434 195.738 14.558L193.837 13.938C193.482 15.0247 193.307 16.1644 193.307 17.352H195.307ZM195.734 14.5703C196.043 13.6636 196.462 12.8787 196.985 12.2059L195.406 10.9781C194.735 11.8413 194.215 12.8271 193.841 13.9257L195.734 14.5703ZM196.974 12.2193C197.505 11.5602 198.142 11.0419 198.891 10.658L197.98 8.87796C196.98 9.39014 196.123 10.0878 195.417 10.9647L196.974 12.2193ZM198.908 10.6492C199.621 10.2667 200.447 10.064 201.411 10.064V8.064C200.157 8.064 198.999 8.33067 197.963 8.88684L198.908 10.6492ZM201.411 10.064C202.306 10.064 203.114 10.2064 203.844 10.4803L204.547 8.60767C203.57 8.24155 202.522 8.064 201.411 8.064V10.064ZM203.872 10.4903C204.554 10.7231 205.102 11.1231 205.537 11.7083L207.142 10.5157C206.468 9.60758 205.586 8.96219 204.519 8.59765L203.872 10.4903ZM206.34 12.112H206.404V10.112H206.34V12.112ZM207.404 11.112V0.807999H205.404V11.112H207.404ZM206.404 1.808H211.204V-0.192001H206.404V1.808ZM210.204 0.807999V25H212.204V0.807999H210.204ZM207.788 17.224C207.788 15.8443 207.379 14.6339 206.492 13.6906L205.035 15.0614C205.513 15.5688 205.788 16.257 205.788 17.224H207.788ZM206.502 13.7022C205.608 12.7211 204.373 12.288 202.947 12.288V14.288C203.954 14.288 204.596 14.5802 205.025 15.0498L206.502 13.7022ZM202.947 12.288C201.521 12.288 200.284 12.7214 199.371 13.6906L200.828 15.0614C201.281 14.58 201.942 14.288 202.947 14.288V12.288ZM199.361 13.7022C198.5 14.6466 198.107 15.8529 198.107 17.224H200.107C200.107 16.2485 200.377 15.5561 200.838 15.0498L199.361 13.7022ZM198.107 17.224C198.107 18.5951 198.5 19.8014 199.361 20.7458L200.838 19.3982C200.377 18.8919 200.107 18.1995 200.107 17.224H198.107ZM199.371 20.7574C200.284 21.7266 201.521 22.16 202.947 22.16V20.16C201.942 20.16 201.281 19.868 200.828 19.3866L199.371 20.7574ZM202.947 22.16C204.373 22.16 205.608 21.7269 206.502 20.7458L205.025 19.3982C204.596 19.8678 203.954 20.16 202.947 20.16V22.16ZM206.492 20.7574C207.379 19.8141 207.788 18.6037 207.788 17.224H205.788C205.788 18.191 205.513 18.8792 205.035 19.3866L206.492 20.7574ZM215.104 9.448V8.448L214.104 9.448H215.104ZM219.904 9.448H220.904L219.904 8.448V9.448ZM219.904 25V26L220.904 25H219.904ZM215.104 25H214.104L215.104 26V25ZM215.52 2.6L214.813 1.89289V1.89289L215.52 2.6ZM219.456 2.6L218.735 3.29311L218.763 3.32083L219.456 2.6ZM219.456 6.536L220.163 7.24311V7.24311L219.456 6.536ZM215.52 6.536L214.799 7.22911L214.827 7.25683L215.52 6.536ZM215.104 10.448H219.904V8.448H215.104V10.448ZM218.904 9.448V25H220.904V9.448H218.904ZM219.904 24H215.104V26H219.904V24ZM216.104 25V9.448H214.104V25H216.104ZM215.72 4.552C215.72 4.04379 215.885 3.6491 216.227 3.30711L214.813 1.89289C214.088 2.61756 213.72 3.52421 213.72 4.552H215.72ZM216.227 3.30711C216.598 2.93548 217.007 2.768 217.504 2.768V0.768C216.464 0.768 215.55 1.15518 214.813 1.89289L216.227 3.30711ZM217.504 2.768C217.999 2.768 218.39 2.93409 218.735 3.29311L220.177 1.90689C219.455 1.15657 218.544 0.768 217.504 0.768V2.768ZM218.763 3.32083C219.122 3.66604 219.288 4.05661 219.288 4.552H221.288C221.288 3.51139 220.899 2.60063 220.149 1.87917L218.763 3.32083ZM219.288 4.552C219.288 5.04849 219.12 5.45727 218.749 5.82889L220.163 7.24311C220.901 6.5054 221.288 5.5915 221.288 4.552H219.288ZM218.749 5.82889C218.407 6.17089 218.012 6.336 217.504 6.336V8.336C218.532 8.336 219.438 7.96778 220.163 7.24311L218.749 5.82889ZM217.504 6.336C216.995 6.336 216.582 6.16977 216.213 5.81517L214.827 7.25683C215.567 7.9689 216.477 8.336 217.504 8.336V6.336ZM216.241 5.84289C215.886 5.47411 215.72 5.06101 215.72 4.552H213.72C213.72 5.57899 214.087 6.48856 214.799 7.22911L216.241 5.84289ZM223.448 13.864L222.535 13.4561L223.448 13.864ZM225.272 11.304L225.948 12.0412L225.949 12.0403L225.272 11.304ZM228.024 9.64L227.686 8.69909L227.679 8.70133L228.024 9.64ZM234.776 9.64L234.431 10.5787L234.438 10.5809L234.776 9.64ZM237.528 11.304L236.842 12.031L236.863 12.0503L237.528 11.304ZM239.384 13.864L238.471 14.2719V14.2719L239.384 13.864ZM239.384 20.584L238.471 20.1761L239.384 20.584ZM237.528 23.176L238.204 23.9132L238.205 23.9123L237.528 23.176ZM234.776 24.808L234.438 23.8671L234.431 23.8693L234.776 24.808ZM228.024 24.808L227.679 25.7467L227.686 25.7489L228.024 24.808ZM225.272 23.176L224.586 23.903L224.607 23.9223L225.272 23.176ZM223.448 20.584L224.361 20.1761L223.448 20.584ZM228.568 20.072L227.829 20.7458L227.84 20.7574L228.568 20.072ZM234.232 20.072L233.504 19.3866L233.493 19.3982L234.232 20.072ZM234.232 14.376L233.493 15.0498L233.504 15.0614L234.232 14.376ZM228.568 14.376L227.84 13.6906L227.829 13.7022L228.568 14.376ZM223.776 17.224C223.776 16.1094 223.977 15.1309 224.361 14.2719L222.535 13.4561C222.023 14.6024 221.776 15.8639 221.776 17.224H223.776ZM224.361 14.2719C224.757 13.3872 225.286 12.6478 225.948 12.0412L224.597 10.5668C223.722 11.3682 223.036 12.3355 222.535 13.4561L224.361 14.2719ZM225.949 12.0403C226.638 11.4069 227.442 10.9194 228.369 10.5787L227.679 8.70133C226.516 9.12864 225.485 9.7504 224.596 10.5677L225.949 12.0403ZM228.363 10.5809C229.315 10.2381 230.331 10.064 231.416 10.064V8.064C230.112 8.064 228.867 8.27393 227.686 8.69911L228.363 10.5809ZM231.416 10.064C232.502 10.064 233.504 10.2381 234.431 10.5787L235.121 8.70133C233.958 8.2739 232.72 8.064 231.416 8.064V10.064ZM234.438 10.5809C235.384 10.9217 236.181 11.4069 236.842 12.031L238.215 10.577C237.34 9.75043 236.301 9.12626 235.115 8.69911L234.438 10.5809ZM236.863 12.0503C237.542 12.6566 238.079 13.3932 238.471 14.2719L240.297 13.4561C239.794 12.3295 239.093 11.3594 238.194 10.5577L236.863 12.0503ZM238.471 14.2719C238.855 15.1309 239.056 16.1094 239.056 17.224H241.056C241.056 15.8639 240.809 14.6024 240.297 13.4561L238.471 14.2719ZM239.056 17.224C239.056 18.3386 238.855 19.3171 238.471 20.1761L240.297 20.9919C240.809 19.8456 241.056 18.5841 241.056 17.224H239.056ZM238.471 20.1761C238.077 21.0574 237.538 21.8088 236.852 22.4397L238.205 23.9123C239.097 23.0925 239.795 22.1159 240.297 20.9919L238.471 20.1761ZM236.853 22.4388C236.191 23.0456 235.391 23.524 234.438 23.8671L235.115 25.7489C236.295 25.324 237.33 24.7144 238.204 23.9132L236.853 22.4388ZM234.431 23.8693C233.504 24.2099 232.502 24.384 231.416 24.384V26.384C232.72 26.384 233.958 26.1741 235.121 25.7467L234.431 23.8693ZM231.416 24.384C230.331 24.384 229.315 24.2099 228.363 23.8671L227.686 25.7489C228.867 26.1741 230.112 26.384 231.416 26.384V24.384ZM228.369 23.8693C227.435 23.5264 226.628 23.0456 225.938 22.4297L224.607 23.9223C225.495 24.7144 226.522 25.3216 227.679 25.7467L228.369 23.8693ZM225.959 22.449C225.29 21.8176 224.758 21.0634 224.361 20.1761L222.535 20.9919C223.035 22.11 223.718 23.0837 224.586 23.903L225.959 22.449ZM224.361 20.1761C223.977 19.3171 223.776 18.3386 223.776 17.224H221.776C221.776 18.5841 222.023 19.8456 222.535 20.9919L224.361 20.1761ZM226.576 17.224C226.576 18.5951 226.968 19.8014 227.829 20.7458L229.307 19.3982C228.846 18.8919 228.576 18.1995 228.576 17.224H226.576ZM227.84 20.7574C228.752 21.7266 229.99 22.16 231.416 22.16V20.16C230.411 20.16 229.75 19.868 229.296 19.3866L227.84 20.7574ZM231.416 22.16C232.841 22.16 234.077 21.7269 234.971 20.7458L233.493 19.3982C233.065 19.8678 232.423 20.16 231.416 20.16V22.16ZM234.96 20.7574C235.848 19.8141 236.256 18.6037 236.256 17.224H234.256C234.256 18.191 233.982 18.8792 233.504 19.3866L234.96 20.7574ZM236.256 17.224C236.256 15.8443 235.848 14.6339 234.96 13.6906L233.504 15.0614C233.982 15.5688 234.256 16.257 234.256 17.224H236.256ZM234.971 13.7022C234.077 12.7211 232.841 12.288 231.416 12.288V14.288C232.423 14.288 233.065 14.5802 233.493 15.0498L234.971 13.7022ZM231.416 12.288C229.99 12.288 228.752 12.7214 227.84 13.6906L229.296 15.0614C229.75 14.58 230.411 14.288 231.416 14.288V12.288ZM227.829 13.7022C226.968 14.6466 226.576 15.8529 226.576 17.224H228.576C228.576 16.2485 228.846 15.5561 229.307 15.0498L227.829 13.7022Z" fill="#2C3E50" mask="url(#path-1-outside-1_1_3)"/>
</svg>
